# xmcd
#
# Track frame offsets:
#	225
#	21718
#	38307
#	52946
#	71336
#	86371
#	99979
#	116766
#	130114
#	142648
#	158706
#	174188
#	187789
#	207997
#
# Disc length: 2994 seconds
#
# Revision: 0
# Processed by: cddbd v1.4PL0 Copyright (c) Steve Scherf et al.
# Submitted via: audiograbber 1.81.02
#
DISCID=a40baf0e
DTITLE=wert - Kult Schlager cd2
DYEAR=1900
DGENRE=
TTITLE0=Christian Anders - es fährt ein Zug nach Nirgendwo
TTITLE1=Mary Roos - Arizona Man
TTITLE2=Tony - an der Nordseeküste
TTITLE3=Tina Rainford - blue Bayou
TTITLE4=Peter Orloff - Cora komm nach Haus'
TTITLE5=Gaby Baginsky - der Rum von Barbados
TTITLE6=Vico Torriani and Botho-Lucas-Chor - Capri Fischer
TTITLE7=Dorthe Kollo - sind sie der Graf von Luxemburg
TTITLE8=Bill Ramsey - Pigalle
TTITLE9=Margot Werner - o, mein Papa
TTITLE10=Ulla Norden - Urlaub
TTITLE11=Ingrid Peters - schmeiss' den Kuckuck aus dem Nest
TTITLE12=Tommy Steiner - das Märchen von Rhodos
TTITLE13=Melanie Hollyday - ich tanze mit dir in den Himmel hinein
EXTD=
EXTT0=
EXTT1=
EXTT2=
EXTT3=
EXTT4=
EXTT5=
EXTT6=
EXTT7=
EXTT8=
EXTT9=
EXTT10=
EXTT11=
EXTT12=
EXTT13=
PLAYORDER=
